<mxfile host="Electron" modified="2024-10-13T10:33:54.120Z" agent="Mozilla/5.0 (Windows NT 10.0; Win64; x64) AppleWebKit/537.36 (KHTML, like Gecko) draw.io/22.1.16 Chrome/120.0.6099.109 Electron/28.1.0 Safari/537.36" etag="WjYHPWqGV7tcX-QxH8Ok" version="22.1.16" type="device">
  <diagram name="Page-1" id="Qq21DrS5RUw3z9mHIcJ7">
    <mxGraphModel dx="1434" dy="956" grid="1" gridSize="10" guides="1" tooltips="1" connect="1" arrows="1" fold="1" page="1" pageScale="1" pageWidth="1200" pageHeight="750" math="0" shadow="0">
      <root>
        <mxCell id="0" />
        <mxCell id="1" parent="0" />
        <mxCell id="Xd92nB0EzWeUXwxBLJxy-2" value="Accumulateur&lt;br&gt;4-bit" style="rounded=0;whiteSpace=wrap;html=1;strokeWidth=2;fillColor=none;" vertex="1" parent="1">
          <mxGeometry x="23" y="210" width="120" height="40" as="geometry" />
        </mxCell>
        <mxCell id="Xd92nB0EzWeUXwxBLJxy-3" value="Temporaire&lt;br&gt;4-bit" style="rounded=0;whiteSpace=wrap;html=1;strokeWidth=2;fillColor=none;" vertex="1" parent="1">
          <mxGeometry x="173" y="210" width="120" height="40" as="geometry" />
        </mxCell>
        <mxCell id="Xd92nB0EzWeUXwxBLJxy-88" style="edgeStyle=orthogonalEdgeStyle;rounded=0;orthogonalLoop=1;jettySize=auto;html=1;exitX=0.75;exitY=1;exitDx=0;exitDy=0;entryX=0.75;entryY=0;entryDx=0;entryDy=0;" edge="1" parent="1" source="Xd92nB0EzWeUXwxBLJxy-4" target="Xd92nB0EzWeUXwxBLJxy-85">
          <mxGeometry relative="1" as="geometry" />
        </mxCell>
        <mxCell id="Xd92nB0EzWeUXwxBLJxy-4" value="Flag&lt;br&gt;FLIP-FLOPS" style="rounded=0;whiteSpace=wrap;html=1;strokeWidth=2;fillColor=none;" vertex="1" parent="1">
          <mxGeometry x="313" y="260" width="100" height="40" as="geometry" />
        </mxCell>
        <mxCell id="Xd92nB0EzWeUXwxBLJxy-70" style="edgeStyle=orthogonalEdgeStyle;rounded=0;orthogonalLoop=1;jettySize=auto;html=1;exitX=1;exitY=0.5;exitDx=0;exitDy=0;" edge="1" parent="1" source="Xd92nB0EzWeUXwxBLJxy-5">
          <mxGeometry relative="1" as="geometry">
            <mxPoint x="412.9655172413793" y="420" as="targetPoint" />
            <Array as="points">
              <mxPoint x="483" y="500" />
              <mxPoint x="483" y="420" />
            </Array>
          </mxGeometry>
        </mxCell>
        <mxCell id="Xd92nB0EzWeUXwxBLJxy-89" style="edgeStyle=orthogonalEdgeStyle;rounded=0;orthogonalLoop=1;jettySize=auto;html=1;exitX=0.25;exitY=0;exitDx=0;exitDy=0;" edge="1" parent="1" source="Xd92nB0EzWeUXwxBLJxy-5">
          <mxGeometry relative="1" as="geometry">
            <mxPoint x="338" y="450" as="targetPoint" />
          </mxGeometry>
        </mxCell>
        <mxCell id="Xd92nB0EzWeUXwxBLJxy-90" style="edgeStyle=orthogonalEdgeStyle;rounded=0;orthogonalLoop=1;jettySize=auto;html=1;exitX=0.75;exitY=0;exitDx=0;exitDy=0;startArrow=classic;startFill=1;endArrow=none;endFill=0;" edge="1" parent="1" source="Xd92nB0EzWeUXwxBLJxy-5">
          <mxGeometry relative="1" as="geometry">
            <mxPoint x="387.66666666666663" y="449.66666666666663" as="targetPoint" />
          </mxGeometry>
        </mxCell>
        <mxCell id="Xd92nB0EzWeUXwxBLJxy-5" value="DECIMAL&lt;br&gt;ADJUST" style="rounded=0;whiteSpace=wrap;html=1;strokeWidth=2;fillColor=none;" vertex="1" parent="1">
          <mxGeometry x="313" y="480" width="100" height="40" as="geometry" />
        </mxCell>
        <mxCell id="Xd92nB0EzWeUXwxBLJxy-64" style="edgeStyle=orthogonalEdgeStyle;rounded=0;orthogonalLoop=1;jettySize=auto;html=1;exitX=1;exitY=0.5;exitDx=0;exitDy=0;entryX=1;entryY=0.5;entryDx=0;entryDy=0;" edge="1" parent="1" source="Xd92nB0EzWeUXwxBLJxy-6" target="Xd92nB0EzWeUXwxBLJxy-12">
          <mxGeometry relative="1" as="geometry">
            <Array as="points">
              <mxPoint x="713" y="230" />
              <mxPoint x="713" y="90" />
            </Array>
          </mxGeometry>
        </mxCell>
        <mxCell id="Xd92nB0EzWeUXwxBLJxy-66" style="edgeStyle=orthogonalEdgeStyle;rounded=0;orthogonalLoop=1;jettySize=auto;html=1;exitX=1;exitY=0.5;exitDx=0;exitDy=0;entryX=0;entryY=0.5;entryDx=0;entryDy=0;" edge="1" parent="1" source="Xd92nB0EzWeUXwxBLJxy-6" target="Xd92nB0EzWeUXwxBLJxy-7">
          <mxGeometry relative="1" as="geometry" />
        </mxCell>
        <mxCell id="Xd92nB0EzWeUXwxBLJxy-6" value="INSTRUCTION&lt;br&gt;REGISTER (8-bit)" style="rounded=0;whiteSpace=wrap;html=1;strokeWidth=2;fillColor=none;" vertex="1" parent="1">
          <mxGeometry x="533" y="210" width="130" height="40" as="geometry" />
        </mxCell>
        <mxCell id="Xd92nB0EzWeUXwxBLJxy-7" value="STACK&lt;br&gt;MULTIPLEXER" style="rounded=0;whiteSpace=wrap;html=1;strokeWidth=2;fillColor=none;" vertex="1" parent="1">
          <mxGeometry x="783" y="210" width="130" height="40" as="geometry" />
        </mxCell>
        <mxCell id="Xd92nB0EzWeUXwxBLJxy-8" value="REGISTRE&lt;br&gt;MPX" style="rounded=0;whiteSpace=wrap;html=1;strokeWidth=2;fillColor=none;" vertex="1" parent="1">
          <mxGeometry x="1043" y="210" width="90" height="40" as="geometry" />
        </mxCell>
        <mxCell id="Xd92nB0EzWeUXwxBLJxy-9" value="INSTRUCTION&lt;br&gt;DECODER&lt;br&gt;AND&lt;br&gt;MACHINE&lt;br&gt;CYCLE&lt;br&gt;ENCODING" style="rounded=0;whiteSpace=wrap;html=1;strokeWidth=2;fillColor=none;" vertex="1" parent="1">
          <mxGeometry x="533" y="301.5" width="130" height="148.5" as="geometry" />
        </mxCell>
        <mxCell id="Xd92nB0EzWeUXwxBLJxy-10" value="" style="endArrow=none;html=1;rounded=0;strokeWidth=2;" edge="1" parent="1">
          <mxGeometry width="50" height="50" relative="1" as="geometry">
            <mxPoint x="683" y="560" as="sourcePoint" />
            <mxPoint x="683" y="560" as="targetPoint" />
            <Array as="points">
              <mxPoint x="523" y="560" />
              <mxPoint x="523" y="620" />
              <mxPoint x="203" y="620" />
              <mxPoint x="203" y="680" />
              <mxPoint x="683" y="680" />
            </Array>
          </mxGeometry>
        </mxCell>
        <mxCell id="Xd92nB0EzWeUXwxBLJxy-11" value="" style="endArrow=none;html=1;rounded=0;strokeWidth=2;" edge="1" parent="1">
          <mxGeometry width="50" height="50" relative="1" as="geometry">
            <mxPoint x="313" y="450" as="sourcePoint" />
            <mxPoint x="313" y="450" as="targetPoint" />
            <Array as="points">
              <mxPoint x="413" y="450" />
              <mxPoint x="413" y="330" />
              <mxPoint x="313" y="330" />
              <mxPoint x="313" y="370" />
              <mxPoint x="343" y="390" />
              <mxPoint x="313" y="410" />
            </Array>
          </mxGeometry>
        </mxCell>
        <mxCell id="Xd92nB0EzWeUXwxBLJxy-12" value="DATA BUS BUFFER" style="rounded=0;whiteSpace=wrap;html=1;strokeWidth=2;fillColor=none;" vertex="1" parent="1">
          <mxGeometry x="533" y="70" width="130" height="40" as="geometry" />
        </mxCell>
        <mxCell id="Xd92nB0EzWeUXwxBLJxy-13" value="TIMING&lt;br&gt;AND&amp;nbsp;&lt;br&gt;CONTROL" style="text;strokeColor=none;align=center;fillColor=none;html=1;verticalAlign=middle;whiteSpace=wrap;rounded=0;" vertex="1" parent="1">
          <mxGeometry x="548" y="575" width="100" height="50" as="geometry" />
        </mxCell>
        <mxCell id="Xd92nB0EzWeUXwxBLJxy-14" value="PROGRAM COUNTER (12)" style="rounded=0;whiteSpace=wrap;html=1;fillColor=none;" vertex="1" parent="1">
          <mxGeometry x="753" y="250" width="190" height="40" as="geometry" />
        </mxCell>
        <mxCell id="Xd92nB0EzWeUXwxBLJxy-15" value="LEVEL NO. 1 (12)" style="rounded=0;whiteSpace=wrap;html=1;fillColor=none;" vertex="1" parent="1">
          <mxGeometry x="753" y="290" width="190" height="40" as="geometry" />
        </mxCell>
        <mxCell id="Xd92nB0EzWeUXwxBLJxy-16" value="LEVEL NO. 2 (12)" style="rounded=0;whiteSpace=wrap;html=1;fillColor=none;" vertex="1" parent="1">
          <mxGeometry x="753" y="330" width="190" height="40" as="geometry" />
        </mxCell>
        <mxCell id="Xd92nB0EzWeUXwxBLJxy-17" value="LEVEL NO. 3 (12)" style="rounded=0;whiteSpace=wrap;html=1;fillColor=none;" vertex="1" parent="1">
          <mxGeometry x="753" y="370" width="190" height="40" as="geometry" />
        </mxCell>
        <mxCell id="Xd92nB0EzWeUXwxBLJxy-18" value="ADDRESS&lt;br&gt;STACK" style="text;strokeColor=none;align=center;fillColor=none;html=1;verticalAlign=middle;whiteSpace=wrap;rounded=0;" vertex="1" parent="1">
          <mxGeometry x="793" y="418" width="90" height="30" as="geometry" />
        </mxCell>
        <mxCell id="Xd92nB0EzWeUXwxBLJxy-19" value="STACK POINTER" style="rounded=0;whiteSpace=wrap;html=1;rotation=-90;fillColor=none;" vertex="1" parent="1">
          <mxGeometry x="660.5" y="317.5" width="160" height="25" as="geometry" />
        </mxCell>
        <mxCell id="Xd92nB0EzWeUXwxBLJxy-20" value="INDEX REG. SELECT" style="rounded=0;whiteSpace=wrap;html=1;rotation=-90;fillColor=none;" vertex="1" parent="1">
          <mxGeometry x="857" y="393.5" width="319.5" height="32.5" as="geometry" />
        </mxCell>
        <mxCell id="Xd92nB0EzWeUXwxBLJxy-21" value="0 (4)" style="rounded=0;whiteSpace=wrap;html=1;fillColor=none;" vertex="1" parent="1">
          <mxGeometry x="1033" y="250" width="60" height="40" as="geometry" />
        </mxCell>
        <mxCell id="Xd92nB0EzWeUXwxBLJxy-22" value="1 (4)" style="rounded=0;whiteSpace=wrap;html=1;fillColor=none;" vertex="1" parent="1">
          <mxGeometry x="1093" y="250" width="60" height="40" as="geometry" />
        </mxCell>
        <mxCell id="Xd92nB0EzWeUXwxBLJxy-23" value="2 (4)" style="rounded=0;whiteSpace=wrap;html=1;fillColor=none;" vertex="1" parent="1">
          <mxGeometry x="1033" y="290" width="60" height="40" as="geometry" />
        </mxCell>
        <mxCell id="Xd92nB0EzWeUXwxBLJxy-24" value="3 (4)" style="rounded=0;whiteSpace=wrap;html=1;fillColor=none;" vertex="1" parent="1">
          <mxGeometry x="1093" y="290" width="60" height="40" as="geometry" />
        </mxCell>
        <mxCell id="Xd92nB0EzWeUXwxBLJxy-25" value="4 (4)" style="rounded=0;whiteSpace=wrap;html=1;fillColor=none;" vertex="1" parent="1">
          <mxGeometry x="1033" y="330" width="60" height="40" as="geometry" />
        </mxCell>
        <mxCell id="Xd92nB0EzWeUXwxBLJxy-26" value="5 (4)" style="rounded=0;whiteSpace=wrap;html=1;fillColor=none;" vertex="1" parent="1">
          <mxGeometry x="1093" y="330" width="60" height="40" as="geometry" />
        </mxCell>
        <mxCell id="Xd92nB0EzWeUXwxBLJxy-27" value="6 (4)" style="rounded=0;whiteSpace=wrap;html=1;fillColor=none;" vertex="1" parent="1">
          <mxGeometry x="1033" y="370" width="60" height="40" as="geometry" />
        </mxCell>
        <mxCell id="Xd92nB0EzWeUXwxBLJxy-28" value="7 (4)" style="rounded=0;whiteSpace=wrap;html=1;fillColor=none;" vertex="1" parent="1">
          <mxGeometry x="1093" y="370" width="60" height="40" as="geometry" />
        </mxCell>
        <mxCell id="Xd92nB0EzWeUXwxBLJxy-29" value="8 (4)" style="rounded=0;whiteSpace=wrap;html=1;fillColor=none;" vertex="1" parent="1">
          <mxGeometry x="1033" y="410" width="60" height="40" as="geometry" />
        </mxCell>
        <mxCell id="Xd92nB0EzWeUXwxBLJxy-30" value="9 (4)" style="rounded=0;whiteSpace=wrap;html=1;fillColor=none;" vertex="1" parent="1">
          <mxGeometry x="1093" y="410" width="60" height="40" as="geometry" />
        </mxCell>
        <mxCell id="Xd92nB0EzWeUXwxBLJxy-31" value="10 (4)" style="rounded=0;whiteSpace=wrap;html=1;fillColor=none;" vertex="1" parent="1">
          <mxGeometry x="1033" y="450" width="60" height="40" as="geometry" />
        </mxCell>
        <mxCell id="Xd92nB0EzWeUXwxBLJxy-32" value="11 (4)" style="rounded=0;whiteSpace=wrap;html=1;fillColor=none;" vertex="1" parent="1">
          <mxGeometry x="1093" y="450" width="60" height="40" as="geometry" />
        </mxCell>
        <mxCell id="Xd92nB0EzWeUXwxBLJxy-33" value="12 (4)" style="rounded=0;whiteSpace=wrap;html=1;fillColor=none;" vertex="1" parent="1">
          <mxGeometry x="1033" y="490" width="60" height="40" as="geometry" />
        </mxCell>
        <mxCell id="Xd92nB0EzWeUXwxBLJxy-34" value="13 (4)" style="rounded=0;whiteSpace=wrap;html=1;fillColor=none;" vertex="1" parent="1">
          <mxGeometry x="1093" y="490" width="60" height="40" as="geometry" />
        </mxCell>
        <mxCell id="Xd92nB0EzWeUXwxBLJxy-35" value="14 (4)" style="rounded=0;whiteSpace=wrap;html=1;fillColor=none;" vertex="1" parent="1">
          <mxGeometry x="1033" y="530" width="60" height="40" as="geometry" />
        </mxCell>
        <mxCell id="Xd92nB0EzWeUXwxBLJxy-36" value="15 (4)" style="rounded=0;whiteSpace=wrap;html=1;fillColor=none;" vertex="1" parent="1">
          <mxGeometry x="1093" y="530" width="60" height="40" as="geometry" />
        </mxCell>
        <mxCell id="Xd92nB0EzWeUXwxBLJxy-39" value="SCRATCH &lt;br&gt;PAD" style="text;strokeColor=none;align=center;fillColor=none;html=1;verticalAlign=middle;whiteSpace=wrap;rounded=0;" vertex="1" parent="1">
          <mxGeometry x="1043" y="575" width="90" height="30" as="geometry" />
        </mxCell>
        <mxCell id="Xd92nB0EzWeUXwxBLJxy-40" value="" style="endArrow=classic;startArrow=classic;html=1;rounded=0;shape=flexArrow;endSize=4;startSize=4;width=8;startWidth=10;endWidth=10;exitX=0.5;exitY=0;exitDx=0;exitDy=0;" edge="1" parent="1" source="Xd92nB0EzWeUXwxBLJxy-7">
          <mxGeometry width="50" height="50" relative="1" as="geometry">
            <mxPoint x="837.76" y="210" as="sourcePoint" />
            <mxPoint x="848" y="154" as="targetPoint" />
          </mxGeometry>
        </mxCell>
        <mxCell id="Xd92nB0EzWeUXwxBLJxy-41" value="" style="endArrow=classic;startArrow=classic;html=1;rounded=0;shape=flexArrow;endSize=4;startSize=4;width=8;startWidth=10;endWidth=10;exitX=0.5;exitY=0;exitDx=0;exitDy=0;" edge="1" parent="1">
          <mxGeometry width="50" height="50" relative="1" as="geometry">
            <mxPoint x="1087.5" y="210" as="sourcePoint" />
            <mxPoint x="1087" y="154" as="targetPoint" />
          </mxGeometry>
        </mxCell>
        <mxCell id="Xd92nB0EzWeUXwxBLJxy-42" value="" style="endArrow=classic;startArrow=classic;html=1;rounded=0;shape=flexArrow;endSize=4;startSize=4;width=8;startWidth=10;endWidth=10;" edge="1" parent="1">
          <mxGeometry width="50" height="50" relative="1" as="geometry">
            <mxPoint x="597.89" y="146" as="sourcePoint" />
            <mxPoint x="597.89" y="110" as="targetPoint" />
          </mxGeometry>
        </mxCell>
        <mxCell id="Xd92nB0EzWeUXwxBLJxy-44" value="" style="endArrow=classic;startArrow=none;html=1;rounded=0;shape=flexArrow;endSize=4;startSize=4;width=8;startWidth=10;endWidth=10;startFill=0;entryX=0.5;entryY=0;entryDx=0;entryDy=0;exitX=0.5;exitY=1;exitDx=0;exitDy=0;" edge="1" parent="1" source="Xd92nB0EzWeUXwxBLJxy-6" target="Xd92nB0EzWeUXwxBLJxy-9">
          <mxGeometry width="50" height="50" relative="1" as="geometry">
            <mxPoint x="563" y="270" as="sourcePoint" />
            <mxPoint x="614" y="250" as="targetPoint" />
          </mxGeometry>
        </mxCell>
        <mxCell id="Xd92nB0EzWeUXwxBLJxy-46" value="" style="endArrow=classic;startArrow=classic;html=1;rounded=0;shape=flexArrow;endSize=4;startSize=4;width=8;startWidth=10;endWidth=10;exitX=0.5;exitY=0;exitDx=0;exitDy=0;" edge="1" parent="1" source="Xd92nB0EzWeUXwxBLJxy-4">
          <mxGeometry width="50" height="50" relative="1" as="geometry">
            <mxPoint x="353" y="229" as="sourcePoint" />
            <mxPoint x="363" y="154" as="targetPoint" />
          </mxGeometry>
        </mxCell>
        <mxCell id="Xd92nB0EzWeUXwxBLJxy-47" value="" style="endArrow=classic;startArrow=classic;html=1;rounded=0;shape=flexArrow;endSize=4;startSize=4;width=8;startWidth=10;endWidth=10;exitX=0.5;exitY=0;exitDx=0;exitDy=0;" edge="1" parent="1">
          <mxGeometry width="50" height="50" relative="1" as="geometry">
            <mxPoint x="232.5" y="210" as="sourcePoint" />
            <mxPoint x="232" y="154" as="targetPoint" />
          </mxGeometry>
        </mxCell>
        <mxCell id="Xd92nB0EzWeUXwxBLJxy-48" value="" style="endArrow=classic;startArrow=classic;html=1;rounded=0;shape=flexArrow;endSize=4;startSize=4;width=8;startWidth=10;endWidth=10;exitX=0.5;exitY=0;exitDx=0;exitDy=0;" edge="1" parent="1">
          <mxGeometry width="50" height="50" relative="1" as="geometry">
            <mxPoint x="82.5" y="210" as="sourcePoint" />
            <mxPoint x="83" y="154" as="targetPoint" />
          </mxGeometry>
        </mxCell>
        <mxCell id="Xd92nB0EzWeUXwxBLJxy-49" value="" style="endArrow=classic;startArrow=none;html=1;rounded=0;shape=flexArrow;endSize=4;startSize=4;width=8;startWidth=10;endWidth=10;startFill=0;exitX=0.5;exitY=1;exitDx=0;exitDy=0;" edge="1" parent="1" source="Xd92nB0EzWeUXwxBLJxy-3">
          <mxGeometry width="50" height="50" relative="1" as="geometry">
            <mxPoint x="183" y="300" as="sourcePoint" />
            <mxPoint x="313" y="350" as="targetPoint" />
            <Array as="points">
              <mxPoint x="233" y="350" />
            </Array>
          </mxGeometry>
        </mxCell>
        <mxCell id="Xd92nB0EzWeUXwxBLJxy-50" value="" style="endArrow=classic;startArrow=none;html=1;rounded=0;shape=flexArrow;endSize=4;startSize=4;width=8;startWidth=10;endWidth=10;startFill=0;exitX=0.5;exitY=1;exitDx=0;exitDy=0;" edge="1" parent="1" source="Xd92nB0EzWeUXwxBLJxy-2">
          <mxGeometry width="50" height="50" relative="1" as="geometry">
            <mxPoint x="83" y="260" as="sourcePoint" />
            <mxPoint x="313" y="430" as="targetPoint" />
            <Array as="points">
              <mxPoint x="83" y="430" />
            </Array>
          </mxGeometry>
        </mxCell>
        <mxCell id="Xd92nB0EzWeUXwxBLJxy-51" value="" style="endArrow=classic;startArrow=none;html=1;rounded=0;shape=flexArrow;endSize=4;startSize=4;width=8;startWidth=10;endWidth=10;startFill=0;exitX=0.5;exitY=1;exitDx=0;exitDy=0;" edge="1" parent="1" source="Xd92nB0EzWeUXwxBLJxy-9">
          <mxGeometry width="50" height="50" relative="1" as="geometry">
            <mxPoint x="628" y="290" as="sourcePoint" />
            <mxPoint x="598" y="560" as="targetPoint" />
          </mxGeometry>
        </mxCell>
        <mxCell id="Xd92nB0EzWeUXwxBLJxy-52" value="" style="endArrow=classic;startArrow=none;html=1;rounded=0;shape=flexArrow;endSize=4;startSize=4;width=8;startWidth=10;endWidth=10;startFill=0;exitX=0.5;exitY=1;exitDx=0;exitDy=0;" edge="1" parent="1" source="Xd92nB0EzWeUXwxBLJxy-9">
          <mxGeometry width="50" height="50" relative="1" as="geometry">
            <mxPoint x="638" y="300" as="sourcePoint" />
            <mxPoint x="503" y="154" as="targetPoint" />
            <Array as="points">
              <mxPoint x="598" y="500" />
              <mxPoint x="503" y="500" />
            </Array>
          </mxGeometry>
        </mxCell>
        <mxCell id="Xd92nB0EzWeUXwxBLJxy-53" value="(4-bit)&lt;br&gt;INTERNAL DATA BUS" style="text;strokeColor=none;align=center;fillColor=none;html=1;verticalAlign=middle;whiteSpace=wrap;rounded=0;" vertex="1" parent="1">
          <mxGeometry x="288" y="100" width="150" height="30" as="geometry" />
        </mxCell>
        <mxCell id="Xd92nB0EzWeUXwxBLJxy-55" value="BI-DIRECTIONAL&lt;br&gt;DATA BUS" style="text;strokeColor=none;align=center;fillColor=none;html=1;verticalAlign=middle;whiteSpace=wrap;rounded=0;" vertex="1" parent="1">
          <mxGeometry x="633" y="30" width="120" height="30" as="geometry" />
        </mxCell>
        <mxCell id="Xd92nB0EzWeUXwxBLJxy-56" value="" style="endArrow=block;startArrow=none;html=1;rounded=0;shape=flexArrow;endSize=4;startSize=4;width=8;startWidth=10;endWidth=10;entryX=0.5;entryY=0;entryDx=0;entryDy=0;endFill=0;startFill=0;" edge="1" parent="1" target="Xd92nB0EzWeUXwxBLJxy-6">
          <mxGeometry width="50" height="50" relative="1" as="geometry">
            <mxPoint x="23" y="150" as="sourcePoint" />
            <mxPoint x="243.5" y="171" as="targetPoint" />
            <Array as="points">
              <mxPoint x="598" y="150" />
            </Array>
          </mxGeometry>
        </mxCell>
        <mxCell id="Xd92nB0EzWeUXwxBLJxy-57" value="" style="endArrow=none;startArrow=block;html=1;rounded=0;shape=flexArrow;endSize=4;startSize=4;width=8;startWidth=10;endWidth=10;exitX=0.5;exitY=0;exitDx=0;exitDy=0;startFill=0;endFill=0;" edge="1" parent="1" source="Xd92nB0EzWeUXwxBLJxy-6">
          <mxGeometry width="50" height="50" relative="1" as="geometry">
            <mxPoint x="252.5" y="240" as="sourcePoint" />
            <mxPoint x="1143" y="150" as="targetPoint" />
            <Array as="points">
              <mxPoint x="598" y="150" />
            </Array>
          </mxGeometry>
        </mxCell>
        <mxCell id="Xd92nB0EzWeUXwxBLJxy-58" value="" style="endArrow=classic;html=1;rounded=0;entryX=0;entryY=0.5;entryDx=0;entryDy=0;" edge="1" parent="1" target="Xd92nB0EzWeUXwxBLJxy-20">
          <mxGeometry width="50" height="50" relative="1" as="geometry">
            <mxPoint x="683" y="620" as="sourcePoint" />
            <mxPoint x="823" y="470" as="targetPoint" />
            <Array as="points">
              <mxPoint x="1017" y="620" />
            </Array>
          </mxGeometry>
        </mxCell>
        <mxCell id="Xd92nB0EzWeUXwxBLJxy-60" value="" style="endArrow=classic;html=1;rounded=0;entryX=0;entryY=0.5;entryDx=0;entryDy=0;" edge="1" parent="1" target="Xd92nB0EzWeUXwxBLJxy-19">
          <mxGeometry width="50" height="50" relative="1" as="geometry">
            <mxPoint x="683" y="620" as="sourcePoint" />
            <mxPoint x="1027" y="580" as="targetPoint" />
            <Array as="points">
              <mxPoint x="740" y="620" />
            </Array>
          </mxGeometry>
        </mxCell>
        <mxCell id="Xd92nB0EzWeUXwxBLJxy-61" value="" style="endArrow=classic;html=1;rounded=0;entryX=1;entryY=0.5;entryDx=0;entryDy=0;" edge="1" parent="1" target="Xd92nB0EzWeUXwxBLJxy-9">
          <mxGeometry width="50" height="50" relative="1" as="geometry">
            <mxPoint x="683" y="620" as="sourcePoint" />
            <mxPoint x="1037" y="590" as="targetPoint" />
            <Array as="points">
              <mxPoint x="713" y="620" />
              <mxPoint x="713" y="376" />
            </Array>
          </mxGeometry>
        </mxCell>
        <mxCell id="Xd92nB0EzWeUXwxBLJxy-62" value="" style="endArrow=classic;html=1;rounded=0;entryX=1;entryY=0.5;entryDx=0;entryDy=0;" edge="1" parent="1" target="Xd92nB0EzWeUXwxBLJxy-6">
          <mxGeometry width="50" height="50" relative="1" as="geometry">
            <mxPoint x="713" y="620" as="sourcePoint" />
            <mxPoint x="1047" y="600" as="targetPoint" />
            <Array as="points">
              <mxPoint x="713" y="230" />
            </Array>
          </mxGeometry>
        </mxCell>
        <mxCell id="Xd92nB0EzWeUXwxBLJxy-68" value="" style="endArrow=classic;html=1;rounded=0;entryX=0.75;entryY=1;entryDx=0;entryDy=0;" edge="1" parent="1" target="Xd92nB0EzWeUXwxBLJxy-2">
          <mxGeometry width="50" height="50" relative="1" as="geometry">
            <mxPoint x="523" y="590" as="sourcePoint" />
            <mxPoint x="453" y="410" as="targetPoint" />
            <Array as="points">
              <mxPoint x="113" y="590" />
            </Array>
          </mxGeometry>
        </mxCell>
        <mxCell id="Xd92nB0EzWeUXwxBLJxy-69" value="" style="endArrow=classic;html=1;rounded=0;entryX=0.75;entryY=1;entryDx=0;entryDy=0;exitX=1;exitY=0.5;exitDx=0;exitDy=0;" edge="1" parent="1" source="Xd92nB0EzWeUXwxBLJxy-5" target="Xd92nB0EzWeUXwxBLJxy-3">
          <mxGeometry width="50" height="50" relative="1" as="geometry">
            <mxPoint x="403" y="460" as="sourcePoint" />
            <mxPoint x="453" y="410" as="targetPoint" />
            <Array as="points">
              <mxPoint x="483" y="500" />
              <mxPoint x="483" y="590" />
              <mxPoint x="263" y="590" />
            </Array>
          </mxGeometry>
        </mxCell>
        <mxCell id="Xd92nB0EzWeUXwxBLJxy-71" value="ROM&lt;br&gt;CONTROL" style="text;strokeColor=none;align=center;fillColor=none;html=1;verticalAlign=middle;whiteSpace=wrap;rounded=0;" vertex="1" parent="1">
          <mxGeometry x="213" y="640" width="60" height="30" as="geometry" />
        </mxCell>
        <mxCell id="Xd92nB0EzWeUXwxBLJxy-72" value="RAM&lt;br&gt;CONTROL" style="text;strokeColor=none;align=center;fillColor=none;html=1;verticalAlign=middle;whiteSpace=wrap;rounded=0;" vertex="1" parent="1">
          <mxGeometry x="303" y="640" width="60" height="30" as="geometry" />
        </mxCell>
        <mxCell id="Xd92nB0EzWeUXwxBLJxy-73" value="TEST" style="text;strokeColor=none;align=center;fillColor=none;html=1;verticalAlign=middle;whiteSpace=wrap;rounded=0;" vertex="1" parent="1">
          <mxGeometry x="383" y="650" width="60" height="30" as="geometry" />
        </mxCell>
        <mxCell id="Xd92nB0EzWeUXwxBLJxy-74" value="SYNC" style="text;strokeColor=none;align=center;fillColor=none;html=1;verticalAlign=middle;whiteSpace=wrap;rounded=0;" vertex="1" parent="1">
          <mxGeometry x="568" y="650" width="60" height="30" as="geometry" />
        </mxCell>
        <mxCell id="Xd92nB0EzWeUXwxBLJxy-75" value="CLOCKS" style="text;strokeColor=none;align=center;fillColor=none;html=1;verticalAlign=middle;whiteSpace=wrap;rounded=0;" vertex="1" parent="1">
          <mxGeometry x="623" y="650" width="60" height="30" as="geometry" />
        </mxCell>
        <mxCell id="Xd92nB0EzWeUXwxBLJxy-76" value="CM ROM" style="text;strokeColor=none;align=center;fillColor=none;html=1;verticalAlign=middle;whiteSpace=wrap;rounded=0;" vertex="1" parent="1">
          <mxGeometry x="213" y="712" width="60" height="30" as="geometry" />
        </mxCell>
        <mxCell id="Xd92nB0EzWeUXwxBLJxy-77" value="CM RAM&lt;br&gt;0-3" style="text;strokeColor=none;align=center;fillColor=none;html=1;verticalAlign=middle;whiteSpace=wrap;rounded=0;" vertex="1" parent="1">
          <mxGeometry x="304" y="720" width="60" height="30" as="geometry" />
        </mxCell>
        <mxCell id="Xd92nB0EzWeUXwxBLJxy-78" value="TEST" style="text;strokeColor=none;align=center;fillColor=none;html=1;verticalAlign=middle;whiteSpace=wrap;rounded=0;" vertex="1" parent="1">
          <mxGeometry x="383" y="712" width="60" height="30" as="geometry" />
        </mxCell>
        <mxCell id="Xd92nB0EzWeUXwxBLJxy-79" value="SYNC" style="text;strokeColor=none;align=center;fillColor=none;html=1;verticalAlign=middle;whiteSpace=wrap;rounded=0;" vertex="1" parent="1">
          <mxGeometry x="563" y="712" width="60" height="30" as="geometry" />
        </mxCell>
        <mxCell id="Xd92nB0EzWeUXwxBLJxy-80" value="1" style="text;strokeColor=none;align=center;fillColor=none;html=1;verticalAlign=middle;whiteSpace=wrap;rounded=0;" vertex="1" parent="1">
          <mxGeometry x="623" y="712" width="25" height="30" as="geometry" />
        </mxCell>
        <mxCell id="Xd92nB0EzWeUXwxBLJxy-81" value="2" style="text;strokeColor=none;align=center;fillColor=none;html=1;verticalAlign=middle;whiteSpace=wrap;rounded=0;" vertex="1" parent="1">
          <mxGeometry x="648" y="712" width="30" height="30" as="geometry" />
        </mxCell>
        <mxCell id="Xd92nB0EzWeUXwxBLJxy-82" value="RESET" style="text;strokeColor=none;align=center;fillColor=none;html=1;verticalAlign=middle;whiteSpace=wrap;rounded=0;" vertex="1" parent="1">
          <mxGeometry x="683" y="712" width="60" height="30" as="geometry" />
        </mxCell>
        <mxCell id="Xd92nB0EzWeUXwxBLJxy-83" value="" style="rounded=0;whiteSpace=wrap;html=1;fillColor=none;strokeWidth=2;" vertex="1" parent="1">
          <mxGeometry x="728" y="250" width="215" height="160" as="geometry" />
        </mxCell>
        <mxCell id="Xd92nB0EzWeUXwxBLJxy-84" value="" style="rounded=0;whiteSpace=wrap;html=1;fillColor=none;strokeWidth=2;" vertex="1" parent="1">
          <mxGeometry x="1000" y="250" width="153" height="320" as="geometry" />
        </mxCell>
        <mxCell id="Xd92nB0EzWeUXwxBLJxy-87" style="edgeStyle=orthogonalEdgeStyle;rounded=0;orthogonalLoop=1;jettySize=auto;html=1;exitX=0.25;exitY=0;exitDx=0;exitDy=0;entryX=0.25;entryY=1;entryDx=0;entryDy=0;" edge="1" parent="1" source="Xd92nB0EzWeUXwxBLJxy-85" target="Xd92nB0EzWeUXwxBLJxy-4">
          <mxGeometry relative="1" as="geometry" />
        </mxCell>
        <mxCell id="Xd92nB0EzWeUXwxBLJxy-85" value="ARITHMETIC&lt;br&gt;LOGIC&lt;br&gt;UNIT&lt;br&gt;(ALU)" style="text;strokeColor=none;align=center;fillColor=none;html=1;verticalAlign=middle;whiteSpace=wrap;rounded=0;" vertex="1" parent="1">
          <mxGeometry x="313" y="330" width="100" height="80" as="geometry" />
        </mxCell>
        <mxCell id="Xd92nB0EzWeUXwxBLJxy-86" value="4-bit" style="text;strokeColor=none;align=center;fillColor=none;html=1;verticalAlign=middle;whiteSpace=wrap;rounded=0;" vertex="1" parent="1">
          <mxGeometry x="353" y="420" width="60" height="30" as="geometry" />
        </mxCell>
        <mxCell id="Xd92nB0EzWeUXwxBLJxy-91" value="" style="endArrow=classic;html=1;rounded=0;" edge="1" parent="1">
          <mxGeometry width="50" height="50" relative="1" as="geometry">
            <mxPoint x="242.86" y="680" as="sourcePoint" />
            <mxPoint x="242.86" y="710" as="targetPoint" />
          </mxGeometry>
        </mxCell>
        <mxCell id="Xd92nB0EzWeUXwxBLJxy-92" value="" style="endArrow=classic;html=1;rounded=0;" edge="1" parent="1">
          <mxGeometry width="50" height="50" relative="1" as="geometry">
            <mxPoint x="312.72" y="680" as="sourcePoint" />
            <mxPoint x="312.72" y="710" as="targetPoint" />
          </mxGeometry>
        </mxCell>
        <mxCell id="Xd92nB0EzWeUXwxBLJxy-93" value="" style="endArrow=classic;html=1;rounded=0;" edge="1" parent="1">
          <mxGeometry width="50" height="50" relative="1" as="geometry">
            <mxPoint x="353" y="680" as="sourcePoint" />
            <mxPoint x="353" y="710" as="targetPoint" />
          </mxGeometry>
        </mxCell>
        <mxCell id="Xd92nB0EzWeUXwxBLJxy-94" value="" style="endArrow=classic;html=1;rounded=0;" edge="1" parent="1">
          <mxGeometry width="50" height="50" relative="1" as="geometry">
            <mxPoint x="326" y="680" as="sourcePoint" />
            <mxPoint x="326" y="710" as="targetPoint" />
          </mxGeometry>
        </mxCell>
        <mxCell id="Xd92nB0EzWeUXwxBLJxy-95" value="" style="endArrow=classic;html=1;rounded=0;" edge="1" parent="1">
          <mxGeometry width="50" height="50" relative="1" as="geometry">
            <mxPoint x="339.86" y="680" as="sourcePoint" />
            <mxPoint x="339.86" y="710" as="targetPoint" />
          </mxGeometry>
        </mxCell>
        <mxCell id="Xd92nB0EzWeUXwxBLJxy-96" value="" style="endArrow=classic;html=1;rounded=0;" edge="1" parent="1">
          <mxGeometry width="50" height="50" relative="1" as="geometry">
            <mxPoint x="412.72" y="710" as="sourcePoint" />
            <mxPoint x="412.86" y="680" as="targetPoint" />
          </mxGeometry>
        </mxCell>
        <mxCell id="Xd92nB0EzWeUXwxBLJxy-97" value="" style="endArrow=classic;html=1;rounded=0;" edge="1" parent="1">
          <mxGeometry width="50" height="50" relative="1" as="geometry">
            <mxPoint x="592.86" y="680" as="sourcePoint" />
            <mxPoint x="592.86" y="710" as="targetPoint" />
          </mxGeometry>
        </mxCell>
        <mxCell id="Xd92nB0EzWeUXwxBLJxy-98" value="" style="endArrow=classic;html=1;rounded=0;" edge="1" parent="1">
          <mxGeometry width="50" height="50" relative="1" as="geometry">
            <mxPoint x="635.36" y="710" as="sourcePoint" />
            <mxPoint x="635.5" y="680" as="targetPoint" />
          </mxGeometry>
        </mxCell>
        <mxCell id="Xd92nB0EzWeUXwxBLJxy-99" value="" style="endArrow=classic;html=1;rounded=0;" edge="1" parent="1">
          <mxGeometry width="50" height="50" relative="1" as="geometry">
            <mxPoint x="662.72" y="710" as="sourcePoint" />
            <mxPoint x="662.86" y="680" as="targetPoint" />
          </mxGeometry>
        </mxCell>
        <mxCell id="Xd92nB0EzWeUXwxBLJxy-100" value="" style="endArrow=classic;html=1;rounded=0;" edge="1" parent="1">
          <mxGeometry width="50" height="50" relative="1" as="geometry">
            <mxPoint x="712.86" y="710" as="sourcePoint" />
            <mxPoint x="683" y="640" as="targetPoint" />
            <Array as="points">
              <mxPoint x="713" y="640" />
            </Array>
          </mxGeometry>
        </mxCell>
        <mxCell id="Xd92nB0EzWeUXwxBLJxy-101" value="" style="endArrow=classic;startArrow=classic;html=1;rounded=0;shape=flexArrow;endSize=4;startSize=4;width=8;startWidth=10;endWidth=10;" edge="1" parent="1">
          <mxGeometry width="50" height="50" relative="1" as="geometry">
            <mxPoint x="597.8" y="70" as="sourcePoint" />
            <mxPoint x="597.8" y="34" as="targetPoint" />
          </mxGeometry>
        </mxCell>
        <mxCell id="Xd92nB0EzWeUXwxBLJxy-102" value="D&lt;sub&gt;0&lt;/sub&gt;-D&lt;sub&gt;3&lt;/sub&gt;" style="text;strokeColor=none;align=center;fillColor=none;html=1;verticalAlign=middle;whiteSpace=wrap;rounded=0;" vertex="1" parent="1">
          <mxGeometry x="568" y="10" width="60" height="30" as="geometry" />
        </mxCell>
      </root>
    </mxGraphModel>
  </diagram>
</mxfile>
